<?xml version="1.0" encoding="UTF-8"?>
<svg id="Layer_1" xmlns="http://www.w3.org/2000/svg" version="1.1" viewBox="0 0 512 338">
  <!-- Generator: Adobe Illustrator 29.6.0, SVG Export Plug-In . SVG Version: 2.1.1 Build 207)  -->
  <path d="M235.49,273.26c-29.57-14.91-58.74-29.61-87.84-44.46-7.46-3.81-9.67-8.75-8.36-17.16.41-2.65.99-5.28,1.69-8.98-6.43,0-12.35.12-18.26-.03-8.63-.22-12-2.56-11.74-7.84.29-5.82,2.66-7.27,11.89-7.28,14.12-.02,28.25.07,42.37-.13,3.61-.05,7.33-.58,10.77-1.65,4.29-1.33,5.77-4.89,5.09-9.24-.74-4.71-4.02-6.29-8.33-6.37-17.21-.3-34.43-.63-51.64-.84-11.8-.14-23.61.02-35.41-.16-6.35-.1-9.93-4.05-9.03-9.36.74-4.35,3.41-6.18,7.68-6.26,10.64-.21,21.27-.53,31.91-.76,8.9-.19,17.8-.55,26.69-.39,4.73.09,6.6-1.78,6.79-6.32.12-2.85.86-5.67,1.42-9.12-2.72-.22-5.15-.57-7.59-.59-11.03-.1-22.06-.09-33.08-.16-1.93-.01-3.87-.1-5.78-.37-4.22-.59-5.86-3.47-5.92-7.35-.06-3.98,1.64-6.83,6.02-6.99,11.4-.4,22.8-.7,34.21-1.01,1.74-.05,3.48.06,5.22.07,9.59.03,9.62.04,11.83-8.98,1.18-4.79,3.72-8.35,8.35-10.42,34.06-15.22,68.09-30.48,102.12-45.76,6.06-2.72,11.84-2.42,17.84.49,29.39,14.27,58.87,28.34,88.27,42.6,8.09,3.92,10.71,9.03,9.32,17.92-4.82,30.94-9.84,61.85-14.63,92.8-1.11,7.16-4.68,11.78-11.35,14.79-35.41,15.97-70.65,32.31-106.14,48.1-4.06,1.81-9.29.97-14.39,1.2M303.94,163.41c2.41,2.22,5,4.28,7.2,6.69,4.52,4.96,4.37,7.2-.81,11.36-7.37,5.92-14.82,11.75-22.37,17.43-3.49,2.63-5.82,5.6-3.02,9.69,2.7,3.94,6.75,3.62,10.25,1.13,12.6-8.92,25.21-17.83,37.49-27.18,5.73-4.36,5.48-10.01.17-14.76-6.33-5.66-12.72-11.26-19.16-16.79-2.18-1.87-4.46-4.48-6.99-4.89-3.18-.51-7.59-.18-9.82,1.72-3.15,2.68-1.67,6.76,1.09,9.75,1.7,1.84,3.56,3.53,5.97,5.84M251.91,153.98c-21.34-11.45-43.34-21.32-66.75-27.9.47,1.42,1.26,2.19,2.19,2.71,16.43,9.27,32.81,18.63,49.36,27.68,5.65,3.09,8.06,7.34,7.5,13.66-.77,8.66-1.26,17.34-1.99,26.01-1.21,14.35-2.54,28.69-3.72,43.04-.03.36,1.05.82,1.64,1.25,1.03-3.05,2.28-5.74,2.84-8.57,4.25-21.6,8.62-43.18,12.29-64.88.65-3.86-1.76-8.25-3.36-13.01Z"/>
</svg>